<?xml version="1.0" encoding="UTF-8"?>
<svg xmlns="http://www.w3.org/2000/svg" width="512" height="512" viewBox="0 0 512 512" fill="none">
  <rect width="512" height="512" rx="100" fill="#10b981"/>
  
  <!-- リンゴのアイコン -->
  <g transform="translate(130, 100) scale(1.3)">
    <path d="M128 48C139.046 48 148 39.0457 148 28C148 16.9543 139.046 8 128 8C116.954 8 108 16.9543 108 28C108 39.0457 116.954 48 128 48Z" fill="#FFFFFF"/>
    <path d="M128 38C133.523 38 138 33.5228 138 28C138 22.4772 133.523 18 128 18C122.477 18 118 22.4772 118 28C118 33.5228 122.477 38 128 38Z" fill="#FFFFFF" opacity="0.8"/>
    <path d="M128 13C130.761 13 133 10.7614 133 8C133 5.23858 130.761 3 128 3C125.239 3 123 5.23858 123 8C123 10.7614 125.239 13 128 13Z" fill="#FFFFFF"/>
    <path d="M138 21C140 19 140 15 138 13" stroke="#FFFFFF" stroke-width="2"/>
    
    <!-- りんごの茎 -->
    <rect x="126" y="0" width="4" height="15" rx="2" fill="#7B241C"/>
    
    <!-- りんごの本体 -->
    <path d="M200 130 C 200 180, 150 220, 128 220 C 106 220, 56 180, 56 130 C 56 80, 78 70, 128 70 C 178 70, 200 80, 200 130" fill="#e74c3c"/>
    
    <!-- ハイライト -->
    <ellipse cx="85" cy="120" rx="15" ry="20" fill="#FFFFFF" opacity="0.2"/>
    
    <!-- 葉っぱ -->
    <path d="M126 13 C 100 30, 100 50, 120 45 C 130 42, 130 20, 126 13" fill="#2ECC71"/>
  </g>
  
  <!-- カレンダーアイコン -->
  <g transform="translate(250, 230) scale(0.9)">
    <rect x="60" y="40" width="140" height="140" rx="10" fill="#FFFFFF"/>
    <rect x="85" y="20" width="10" height="35" rx="5" fill="#FFFFFF"/>
    <rect x="165" y="20" width="10" height="35" rx="5" fill="#FFFFFF"/>
    <line x1="60" y1="75" x2="200" y2="75" stroke="#e74c3c" stroke-width="4"/>
    
    <!-- 日付 -->
    <text x="130" y="140" font-family="Arial, sans-serif" font-size="60" text-anchor="middle" fill="#e74c3c" font-weight="bold">31</text>
  </g>
</svg>