<?xml version="1.0" encoding="UTF-8"?>
<svg xmlns="http://www.w3.org/2000/svg" width="800" height="600" viewBox="0 0 800 600" fill="none">
  <rect width="800" height="600" fill="#f8f9fc" />
  
  <!-- 果物や野菜のパターン（背景） -->
  <g opacity="0.07">
    <!-- リンゴ -->
    <path d="M100 100C111.046 100 120 91.0457 120 80C120 68.9543 111.046 60 100 60C88.9543 60 80 68.9543 80 80C80 91.0457 88.9543 100 100 100Z" fill="#E74C3C"/>
    <path d="M100 90C105.523 90 110 85.5228 110 80C110 74.4772 105.523 70 100 70C94.4772 70 90 74.4772 90 80C90 85.5228 94.4772 90 100 90Z" fill="#C0392B"/>
    <path d="M100 65C102.761 65 105 62.7614 105 60C105 57.2386 102.761 55 100 55C97.2386 55 95 57.2386 95 60C95 62.7614 97.2386 65 100 65Z" fill="#7B241C"/>
    <path d="M110 73C112 71 112 67 110 65" stroke="#7B241C" stroke-width="2"/>
    
    <!-- ニンジン -->
    <path d="M200 140C200 125 205 115 215 110C225 105 235 110 240 120C245 130 240 145 230 155C220 165 205 170 200 160C195 150 200 140 200 140Z" fill="#E67E22"/>
    <path d="M215 110C210 115 205 125 200 140" stroke="#D35400" stroke-width="2"/>
    <path d="M215 105C220 107 223 110 225 115" stroke="#7B241C" stroke-width="2"/>
    
    <!-- レタス -->
    <path d="M300 100C315 85 335 80 350 90C365 100 370 120 360 135C350 150 330 155 315 145C300 135 295 115 300 100Z" fill="#2ECC71"/>
    <path d="M320 95C330 85 345 83 355 90" stroke="#27AE60" stroke-width="3"/>
    <path d="M310 105C320 95 335 93 345 100" stroke="#27AE60" stroke-width="2"/>
    <path d="M305 115C315 105 330 103 340 110" stroke="#27AE60" stroke-width="2"/>
    
    <!-- トマト -->
    <path d="M440 120C455 105 475 105 490 120C505 135 505 155 490 170C475 185 455 185 440 170C425 155 425 135 440 120Z" fill="#E74C3C"/>
    <path d="M465 105C470 103 475 103 480 105C485 107 488 110 490 115" stroke="#7B241C" stroke-width="2"/>
    <path d="M465 130C475 120 485 120 495 130" stroke="#C0392B" stroke-width="3"/>
    
    <!-- ナス -->
    <path d="M570 110C580 100 595 100 605 110C615 120 620 135 615 150C610 165 595 175 580 170C565 165 560 150 570 135C580 120 570 110 570 110Z" fill="#8E44AD"/>
    <path d="M587 105C592 103 597 103 602 105" stroke="#7B241C" stroke-width="2"/>
    <path d="M585 115C595 105 605 105 615 115" stroke="#6C3483" stroke-width="2"/>
    
    <!-- パプリカ -->
    <path d="M700 130C710 115 725 110 740 115C755 120 765 135 760 150C755 165 740 175 725 170C710 165 700 150 710 135C720 120 700 130 700 130Z" fill="#F1C40F"/>
    <path d="M730 110C735 108 740 108 745 110" stroke="#7B241C" stroke-width="2"/>
    <path d="M715 120C725 110 740 110 750 120" stroke="#D4AC0D" stroke-width="3"/>
    
    <!-- 複製 -->
    
    <!-- リンゴ2 -->
    <path d="M150 300C161.046 300 170 291.046 170 280C170 268.954 161.046 260 150 260C138.954 260 130 268.954 130 280C130 291.046 138.954 300 150 300Z" fill="#E74C3C"/>
    <path d="M150 290C155.523 290 160 285.523 160 280C160 274.477 155.523 270 150 270C144.477 270 140 274.477 140 280C140 285.523 144.477 290 150 290Z" fill="#C0392B"/>
    <path d="M150 265C152.761 265 155 262.761 155 260C155 257.239 152.761 255 150 255C147.239 255 145 257.239 145 260C145 262.761 147.239 265 150 265Z" fill="#7B241C"/>
    <path d="M160 273C162 271 162 267 160 265" stroke="#7B241C" stroke-width="2"/>
    
    <!-- ニンジン2 -->
    <path d="M250 340C250 325 255 315 265 310C275 305 285 310 290 320C295 330 290 345 280 355C270 365 255 370 250 360C245 350 250 340 250 340Z" fill="#E67E22"/>
    <path d="M265 310C260 315 255 325 250 340" stroke="#D35400" stroke-width="2"/>
    <path d="M265 305C270 307 273 310 275 315" stroke="#7B241C" stroke-width="2"/>
    
    <!-- レタス2 -->
    <path d="M350 300C365 285 385 280 400 290C415 300 420 320 410 335C400 350 380 355 365 345C350 335 345 315 350 300Z" fill="#2ECC71"/>
    <path d="M370 295C380 285 395 283 405 290" stroke="#27AE60" stroke-width="3"/>
    <path d="M360 305C370 295 385 293 395 300" stroke="#27AE60" stroke-width="2"/>
    <path d="M355 315C365 305 380 303 390 310" stroke="#27AE60" stroke-width="2"/>
    
    <!-- トマト2 -->
    <path d="M490 320C505 305 525 305 540 320C555 335 555 355 540 370C525 385 505 385 490 370C475 355 475 335 490 320Z" fill="#E74C3C"/>
    <path d="M515 305C520 303 525 303 530 305C535 307 538 310 540 315" stroke="#7B241C" stroke-width="2"/>
    <path d="M515 330C525 320 535 320 545 330" stroke="#C0392B" stroke-width="3"/>
    
    <!-- ナス2 -->
    <path d="M620 310C630 300 645 300 655 310C665 320 670 335 665 350C660 365 645 375 630 370C615 365 610 350 620 335C630 320 620 310 620 310Z" fill="#8E44AD"/>
    <path d="M637 305C642 303 647 303 652 305" stroke="#7B241C" stroke-width="2"/>
    <path d="M635 315C645 305 655 305 665 315" stroke="#6C3483" stroke-width="2"/>
    
    <!-- キュウリ -->
    <path d="M150 500C140 480 145 460 160 450C175 440 195 445 210 465C225 485 220 505 205 515C190 525 170 520 155 500C140 480 150 500 150 500Z" fill="#27AE60"/>
    <path d="M160 450C165 455 168 465 170 480" stroke="#1E8449" stroke-width="2"/>
    <path d="M180 500C190 480 200 480 210 500" stroke="#1E8449" stroke-width="3"/>
    
    <!-- パプリカ2 -->
    <path d="M300 500C310 485 325 480 340 485C355 490 365 505 360 520C355 535 340 545 325 540C310 535 300 520 310 505C320 490 300 500 300 500Z" fill="#F1C40F"/>
    <path d="M330 480C335 478 340 478 345 480" stroke="#7B241C" stroke-width="2"/>
    <path d="M315 490C325 480 340 480 350 490" stroke="#D4AC0D" stroke-width="3"/>
    
    <!-- ブロッコリー -->
    <path d="M450 530C460 510 480 500 500 510C520 520 530 540 520 560C510 580 490 590 470 580C450 570 440 550 450 530Z" fill="#2ECC71"/>
    <path d="M490 520C480 510 480 500 490 490" stroke="#1E8449" stroke-width="2"/>
    <path d="M480 530C490 520 505 520 515 530" stroke="#1E8449" stroke-width="3"/>
    <path d="M460 540C470 530 485 530 495 540" stroke="#1E8449" stroke-width="2"/>
    <path d="M470 550C480 540 495 540 505 550" stroke="#1E8449" stroke-width="2"/>
    
    <!-- ニンニク -->
    <path d="M600 520C610 500 630 490 650 500C670 510 680 530 670 550C660 570 640 580 620 570C600 560 590 540 600 520Z" fill="#ECF0F1"/>
    <path d="M640 490C645 492 648 495 650 500" stroke="#7B241C" stroke-width="2"/>
    <path d="M620 510C630 500 645 500 655 510" stroke="#BDC3C7" stroke-width="3"/>
    <path d="M610 520C620 510 635 510 645 520" stroke="#BDC3C7" stroke-width="2"/>
    <path d="M600 530C610 520 625 520 635 530" stroke="#BDC3C7" stroke-width="2"/>
    
    <!-- 玉ねぎ -->
    <path d="M720 520C730 500 750 490 770 500C790 510 800 530 790 550C780 570 760 580 740 570C720 560 710 540 720 520Z" fill="#F5B041"/>
    <path d="M760 490C765 492 768 495 770 500" stroke="#7B241C" stroke-width="2"/>
    <path d="M740 510C750 500 765 500 775 510" stroke="#D35400" stroke-width="3"/>
    <path d="M730 520C740 510 755 510 765 520" stroke="#D35400" stroke-width="2"/>
    <path d="M720 530C730 520 745 520 755 530" stroke="#D35400" stroke-width="2"/>
  </g>
</svg>