<?xml version="1.0" encoding="UTF-8"?>
<svg width="800px" height="800px" viewBox="0 0 800 800" version="1.1" xmlns="http://www.w3.org/2000/svg" xmlns:xlink="http://www.w3.org/1999/xlink">
    <title>Food Pattern</title>
    <defs>
        <pattern id="pattern-1" patternUnits="userSpaceOnUse" width="200" height="200" patternTransform="scale(0.5)">
            <g fill-rule="nonzero" fill="none" stroke-width="2" stroke-linecap="round" stroke-linejoin="round">
                <!-- Apple -->
                <path d="M40,50 C40,40 45,30 60,30 C75,30 75,50 75,50 C75,50 85,30 100,40 C115,50 110,80 100,100 C90,120 75,140 60,140 C45,140 30,120 20,100 C10,80 10,60 20,50 C30,40 40,40 40,50 Z" stroke="#E87373" fill="#FFE2E2"></path>
                <path d="M60,30 L60,10" stroke="#8C9F6B"></path>
                
                <!-- Carrot -->
                <path d="M150,40 L170,20 L180,30 L160,50 Z" stroke="#8C9F6B" fill="#C6E2A6"></path>
                <path d="M160,50 C160,50 180,70 170,110 C160,150 150,160 140,170 C130,180 120,170 130,160 C140,150 150,140 150,110 C150,80 160,50 160,50 Z" stroke="#E89D5C" fill="#FFD1A6"></path>
                
                <!-- Banana -->
                <path d="M60,160 C60,160 40,180 40,200 C40,220 50,240 70,240 C90,240 120,220 130,200 C140,180 130,170 120,180 C110,190 100,200 80,200 C60,200 50,190 50,180 C50,170 60,160 60,160 Z" stroke="#E8D15C" fill="#FFF2A6"></path>
                
                <!-- Broccoli -->
                <circle cx="150" cy="200" r="20" stroke="#8C9F6B" fill="#C6E2A6"></circle>
                <circle cx="135" cy="185" r="10" stroke="#8C9F6B" fill="#C6E2A6"></circle>
                <circle cx="165" cy="185" r="10" stroke="#8C9F6B" fill="#C6E2A6"></circle>
                <circle cx="140" cy="210" r="10" stroke="#8C9F6B" fill="#C6E2A6"></circle>
                <circle cx="160" cy="210" r="10" stroke="#8C9F6B" fill="#C6E2A6"></circle>
                <path d="M150,220 L150,240" stroke="#8C9F6B" fill="#C6E2A6"></path>
            </g>
        </pattern>
    </defs>
    <rect width="800" height="800" fill="#F8FAFC"></rect>
    <rect width="800" height="800" fill="url(#pattern-1)" opacity="0.1"></rect>
</svg>