<?xml version="1.0" encoding="UTF-8"?>
<svg xmlns="http://www.w3.org/2000/svg" width="300" height="200" viewBox="0 0 300 200" fill="none">
  <!-- トマト -->
  <circle cx="50" cy="50" r="30" fill="#e74c3c"/>
  <path d="M50 15C55 15 60 20 60 25" stroke="#7B241C" stroke-width="2"/>
  <circle cx="50" cy="50" r="20" fill="#c0392b"/>
  
  <!-- レタス -->
  <path d="M130 50C145 35 165 30 180 40C195 50 200 70 190 85C180 100 160 105 145 95C130 85 125 65 130 50Z" fill="#2ECC71"/>
  <path d="M150 45C160 35 175 33 185 40" stroke="#27AE60" stroke-width="3"/>
  <path d="M140 55C150 45 165 43 175 50" stroke="#27AE60" stroke-width="2"/>
  <path d="M135 65C145 55 160 53 170 60" stroke="#27AE60" stroke-width="2"/>
  
  <!-- ニンジン -->
  <path d="M240 60C240 45 245 35 255 30C265 25 275 30 280 40C285 50 280 65 270 75C260 85 245 90 240 80C235 70 240 60 240 60Z" fill="#E67E22"/>
  <path d="M255 30C250 35 245 45 240 60" stroke="#D35400" stroke-width="2"/>
  <path d="M255 25C260 27 263 30 265 35" stroke="#7B241C" stroke-width="2"/>
  
  <!-- キュウリ -->
  <path d="M70 140C60 120 65 100 80 90C95 80 115 85 130 105C145 125 140 145 125 155C110 165 90 160 75 140C60 120 70 140 70 140Z" fill="#27AE60"/>
  <path d="M80 90C85 95 88 105 90 120" stroke="#1E8449" stroke-width="2"/>
  <path d="M100 140C110 120 120 120 130 140" stroke="#1E8449" stroke-width="3"/>
  
  <!-- パプリカ -->
  <path d="M190 140C200 125 215 120 230 125C245 130 255 145 250 160C245 175 230 185 215 180C200 175 190 160 200 145C210 130 190 140 190 140Z" fill="#F1C40F"/>
  <path d="M220 120C225 118 230 118 235 120" stroke="#7B241C" stroke-width="2"/>
  <path d="M205 130C215 120 230 120 240 130" stroke="#D4AC0D" stroke-width="3"/>
</svg>